<?xml version="1.0" encoding="utf-8"?>
<!-- Generator: Adobe Illustrator 25.0.0, SVG Export Plug-In . SVG Version: 6.00 Build 0)  -->
<svg version="1.1" id="Layer_1" xmlns="http://www.w3.org/2000/svg" xmlns:xlink="http://www.w3.org/1999/xlink" x="0px" y="0px"
	 viewBox="0 0 820 417" style="enable-background:new 0 0 820 417;" xml:space="preserve">
<style type="text/css">
	.st0{fill:#231F20;}
</style>
<rect y="401.5" class="st0" width="726.3" height="14.7"/>
<path class="st0" d="M51.3,162.9c33.7,0,45.8-19.8,45.8-38.4c0-3-0.4-5.5-0.8-7.9c-3.5-21.5-28.3-27.8-44.8-31.9
	c-10.8-3.2-17-6.5-20.9-11l-2.8-3.2l-13.4,18l2.4,2.1c8.7,7.5,17.5,11.1,29,15.4c2.9,1.1,5.9,2,8.9,2.9c8.5,2.6,17.2,5.3,19.5,10.2
	c0.9,1.7,1.2,3.5,1.2,6.3c0,2.9-1.1,17.2-23.8,17.2c-18.2,0-29.5-10.9-33.6-15.5l-2.7-3.2L2.7,140.6l1.7,2.1
	C12.1,151.9,26.4,162.9,51.3,162.9z"/>
<path class="st0" d="M48.6,71.5l1.5,0.4c1.1,0.3,2.2,0.7,3.3,1c9.7,2.9,18.9,5.6,21.8,11.3l2.5,4.9l14.3-19.1l-2-2.1
	c-8.9-9.3-22.5-13.7-34.6-16.9c-10.3-2.7-19.2-5.2-23.2-9.4c-1.5-1.8-2.3-3.3-2.3-6.3c0-8.9,8.2-14.9,20.3-14.9
	c12.6,0,23,4.3,30.9,12.9l2.6,2.8l13.4-15.8L95,18.1c-10.8-11.3-25.5-17-43.6-17C26.2,1.1,7.9,15.9,7.9,36.4c0,3,0.4,5.6,1.3,8.3
	C13.5,62.3,32.1,67.2,48.6,71.5z"/>
<g>
	<path class="st0" d="M51.3,373.1c33.7,0,45.8-19.8,45.8-38.4c0-3-0.4-5.5-0.8-7.9c-3.5-21.5-28.3-27.8-44.8-31.9
		c-10.8-3.2-17-6.5-20.9-11l-2.8-3.2l-13.4,18l2.4,2.1c8.7,7.5,17.5,11.1,29,15.4c2.9,1.1,5.9,2,8.9,2.9c8.5,2.6,17.2,5.3,19.5,10.2
		c0.9,1.7,1.2,3.5,1.2,6.3c0,2.9-1.1,17.2-23.8,17.2c-18.2,0-29.5-10.9-33.6-15.5l-2.7-3.2L2.7,350.8l1.7,2.1
		C12.1,362.1,26.4,373.1,51.3,373.1z"/>
	<path class="st0" d="M48.6,281.7L50,282c1.1,0.3,2.2,0.7,3.3,1c9.7,2.9,18.9,5.6,21.8,11.3l2.5,4.9l14.3-19.1l-2-2.1
		c-8.9-9.3-22.5-13.7-34.6-16.9c-10.3-2.7-19.2-5.2-23.2-9.4c-1.5-1.8-2.3-3.3-2.3-6.3c0-8.9,8.2-14.9,20.3-14.9
		c12.6,0,23,4.3,30.9,12.9l2.6,2.8l13.4-15.8l-2.1-2.2c-10.8-11.3-25.5-17-43.6-17c-25.2,0-43.4,14.8-43.4,35.3c0,3,0.4,5.6,1.3,8.3
		C13.5,272.5,32.1,277.4,48.6,281.7z"/>
</g>
<path class="st0" d="M141.4,161.5h-27.1V4.4h27.1v67.3h30.8V4.4h27.6v157.1h-27.6V94.1h-30.8V161.5z"/>
<path class="st0" d="M254.1,70.6h37.2V93h-37.2v46h46.8v22.4H227V4.4h73.9v22.4h-46.8V70.6z"/>
<path class="st0" d="M381.7,161.5c-1.5-4-2.5-6.5-2.5-19.3v-24.7c0-14.6-5.4-20-17.7-20h-9.4v64h-27.1V4.4H366
	c28.1,0,40.2,11.9,40.2,36.1v12.3c0,16.2-5.7,26.5-17.7,31.6v0.4c13.6,5.2,18,16.8,18,33.2v24.2c0,7.6,0.2,13.2,3,19.1H381.7z
	 M352.2,26.8v48.2h10.6c10.1,0,16.3-4,16.3-16.6V43c0-11.2-4.2-16.2-13.8-16.2H352.2z"/>
<path class="st0" d="M431.5,4.4h27.1v157.1h-27.1V4.4z"/>
<path class="st0" d="M510.4,47.7h-0.5v113.8h-24.4V4.4h34l27.4,94h0.5v-94h24.2v157.1h-27.9L510.4,47.7z"/>
<path class="st0" d="M139.6,256.7h-0.5V371h-24.5V213.1h34.2l27.5,94.5h0.5v-94.5h24.3V371h-28L139.6,256.7z"/>
<path class="st0" d="M228.1,213.1h27.3V371h-27.3V213.1z"/>
<path class="st0" d="M479.4,371h-27.5l-4.7-28.6h-33.5L409,371h-25l27.8-157.9h39.9L479.4,371z M417.2,321h26.3l-12.9-79.9H430
	L417.2,321z"/>
<path class="st0" d="M499.4,213.1h27.3v135.3h44.8V371h-72.1V213.1z"/>
<g>
	<path class="st0" d="M325.7,213.1h-43.1v62.5l27.3,22.6v-62.6h15.4c8.7,0,13.9,4.1,13.9,15.3v82.1c0,11.3-5.2,15.3-13.9,15.3h-15.4
		v-17.1l-27.3-22.6V371h43.1c27.3,0,40.6-13.8,40.6-39v-79.9C366.4,226.9,353,213.1,325.7,213.1z"/>
</g>
</svg>
